<?xml version="1.0" encoding="UTF-8"?>
<svg id="Layer_1" xmlns="http://www.w3.org/2000/svg" version="1.1" xmlns:xlink="http://www.w3.org/1999/xlink" viewBox="0 0 708.66 283.46">
  <!-- Generator: Adobe Illustrator 29.8.1, SVG Export Plug-In . SVG Version: 2.1.1 Build 2)  -->
  <defs>
    <style>
      .st0 {
        fill: #1d1d1b;
      }

      .st1 {
        fill: none;
      }

      .st2 {
        clip-path: url(#clippath);
      }
    </style>
    <clipPath id="clippath">
      <rect class="st1" x="20" y="103.59" width="668.61" height="78.87"/>
    </clipPath>
  </defs>
  <g class="st2">
    <path class="st0" d="M683.69,176.33h-9.19l-34.9-49.23c-.55-.77-.99-.88-1.64-.88-.87,0-1.75.77-1.75,1.97v49.88c0,1.97.66,3.28,2.52,3.28s2.41-1.31,2.41-3.28v-40.69l30.3,43.1c.22.33.88.88,1.64.88h13.67c1.31,0,1.86-.55,1.86-1.86v-71.43c0-1.97-.66-3.28-2.52-3.28s-2.41,1.31-2.41,3.28v68.26ZM671.11,149.42l-30.41-43.76c-.33-.44-.77-.88-1.53-.88h-13.78c-1.31,0-1.86.55-1.86,1.86v71.43c0,1.97.66,3.28,2.52,3.28s2.41-1.31,2.41-3.28v-68.26h9.08l35.01,49.99c.55.77,1.09.88,1.64.88.99,0,1.75-.77,1.75-1.86v-50.76c0-1.97-.66-3.28-2.52-3.28s-2.41,1.31-2.41,3.28l.11,41.35ZM604.67,122.4c1.97,0,3.28-.66,3.28-2.52s-1.31-2.41-3.28-2.41h-33.8c-1.31,0-1.86.55-1.86,1.86v17.29c0,1.31.55,1.86,1.86,1.86h25.27v7.77h-25.27c-1.31,0-1.86.66-1.86,1.97v18.6c0,1.31.55,1.86,1.86,1.86h33.8c1.97,0,3.28-.66,3.28-2.52s-1.31-2.41-3.28-2.41h-30.74v-12.58h25.16c1.31,0,1.86-.55,1.86-1.86v-13.78c0-1.31-.55-1.97-1.86-1.97h-25.16v-11.16h30.74ZM604.67,109.71c1.97,0,3.28-.66,3.28-2.52s-1.31-2.41-3.28-2.41h-46.38c-1.31,0-1.97.66-1.97,1.86v72.86c0,1.2.66,1.86,1.97,1.86h46.38c1.97,0,3.28-.66,3.28-2.52s-1.31-2.41-3.28-2.41h-43.43v-66.73h43.43ZM534.29,176.33h-9.19l-34.9-49.23c-.55-.77-.98-.88-1.64-.88-.87,0-1.75.77-1.75,1.97v49.88c0,1.97.66,3.28,2.52,3.28s2.41-1.31,2.41-3.28v-40.69l30.3,43.1c.22.33.87.88,1.64.88h13.67c1.31,0,1.86-.55,1.86-1.86v-71.43c0-1.97-.66-3.28-2.52-3.28s-2.41,1.31-2.41,3.28v68.26ZM521.71,149.42l-30.41-43.76c-.33-.44-.77-.88-1.53-.88h-13.78c-1.31,0-1.86.55-1.86,1.86v71.43c0,1.97.66,3.28,2.52,3.28s2.41-1.31,2.41-3.28v-68.26h9.08l35.01,49.99c.55.77,1.09.88,1.64.88.98,0,1.75-.77,1.75-1.86v-50.76c0-1.97-.66-3.28-2.52-3.28s-2.41,1.31-2.41,3.28l.11,41.35ZM438.31,149.42c-5.03-12.58-11.05-27.9-11.05-27.9-.44-.98-1.09-1.31-1.86-1.31s-1.42.44-1.75,1.31c0,0-6.02,15.31-11.05,27.9-.22.55-.66,1.64-.66,2.52,0,.33.11.55.22.77.44.66.87.98,3.39.98h19.8c2.52,0,2.95-.33,3.39-.98.11-.22.22-.44.22-.77,0-.88-.44-1.97-.66-2.52M439.84,165.94l5.36,13.13c.55,1.42,1.42,2.3,2.63,2.3,1.53,0,2.52-1.09,2.52-2.3,0-.55-.22-1.09-.44-1.75l-5.8-14.33c-.55-1.31-1.42-1.97-2.95-1.97h-31.4c-1.53,0-2.41.66-2.95,1.97l-5.8,14.33c-.22.66-.44,1.2-.44,1.75,0,1.09.98,2.3,2.52,2.3,1.2,0,2.08-.88,2.63-2.3l5.36-13.13h28.77ZM417.96,148.77l7.44-19.03,7.44,19.03h-14.88ZM458.76,179.07c.55,1.42,1.42,2.3,2.63,2.3,1.31,0,2.52-.88,2.52-2.41,0-.44-.22-1.09-.44-1.64l-29.21-71.43c-.33-.77-.98-1.09-1.86-1.09h-14c-.77,0-1.42.33-1.75,1.09l-29.21,71.43c-.22.55-.44,1.2-.44,1.64,0,1.31,1.2,2.41,2.52,2.41,1.2,0,2.08-.88,2.62-2.3l28.22-69.25h10.17l28.22,69.25ZM350.86,139.25c5.14,0,9.41-.44,12.8-4.16,2.3-2.84,2.3-5.47,2.3-6.78s0-3.94-2.3-6.78c-3.39-3.72-7.66-4.16-12.8-4.16h-16.41c-1.31,0-1.86.55-1.86,1.86v18.16c0,1.31.55,1.86,1.86,1.86h16.41ZM337.41,151.28h15.53c6.35,0,10.06,1.53,10.06,6.02s-3.72,5.91-10.06,5.91h-15.53v-11.92ZM324.83,108.07c0-1.97-.55-3.28-2.41-3.28s-2.52,1.31-2.52,3.28v70.01c0,1.97.55,3.28,2.41,3.28s2.52-1.31,2.52-3.28v-70.01ZM366.72,140.12c-.44.33-.66.88-.66,1.42,0,.66.44,1.2.99,1.53,6.24,3.39,10.17,8.2,10.17,15.97s-4.92,17.39-24.61,17.39h-16.74c-1.97,0-3.28.55-3.28,2.41s1.31,2.52,3.28,2.52h16.74c22.64,0,29.54-11.82,29.54-22.32,0-7.22-3.28-13.89-9.52-17.94,3.61-3.06,7.11-7.44,7.11-14.22,0-13.78-8.2-22.1-29.21-22.1h-14.66c-1.97,0-3.28.55-3.28,2.41s1.31,2.52,3.28,2.52h14.55c19.47,0,24.39,7.99,24.39,16.96,0,6.35-3.94,10.39-8.1,13.46M352.94,168.13c5.14,0,9.3,0,12.58-3.94,2.41-2.84,2.52-6.02,2.52-6.89,0-.98-.11-4.16-2.52-7-3.28-3.94-7.44-3.94-12.58-3.94h-18.49c-1.31,0-1.86.55-1.86,1.86v18.05c0,1.31.55,1.86,1.86,1.86h18.49ZM337.41,134.33v-12.03h13.45c6.24,0,10.17,1.64,10.17,6.02s-3.94,6.02-10.17,6.02h-13.45ZM257.4,157.63c3.39,8.42,11.05,12.91,19.47,12.91,7.55,0,17.83-3.5,17.83-11.7,0-9.19-9.52-11.27-19.58-13.46-10.94-2.3-23.19-5.25-23.19-17.94,0-7.99,7.88-18.82,25.82-18.82,11.92,0,20.02,6.89,24.83,16.85.66,1.2,1.42,2.63,2.84,2.63,1.31-.11,1.97-1.09,1.97-2.52,0-1.53-1.75-5.25-3.06-7.22-4.92-7.55-13.78-14.77-26.58-14.77-19.58,0-30.85,11.92-30.85,23.85,0,15.97,15.75,20.13,27.68,22.75,8.2,1.86,15.32,3.39,15.32,8.31,0,5.58-8.53,7.33-12.91,7.33-6.78,0-12.25-4.05-14.77-10.06-.87-1.86-1.64-2.63-2.95-2.63-1.42,0-2.19,1.31-2.19,2.52,0,.77.11,1.42.33,1.97M244.93,160.47c4.37,15.53,18.05,21.99,31.94,21.99,15.97,0,31.18-8.09,31.18-23.74s-14.22-20.24-28-23.3c-6.89-1.53-15.21-3.72-15.21-7.99s6.13-6.56,12.14-6.56c5.69,0,10.5,2.3,13.46,7.55.77,1.42,1.64,2.74,3.06,2.74,1.31,0,2.3-.99,2.3-2.63,0-1.53-2.3-4.92-3.83-6.45.11,0-5.69-6.24-14.99-6.24-7.33,0-17.28,3.28-17.28,11.7,0,7.77,8.97,9.85,18.93,12.14,11.6,2.73,24.61,5.69,24.61,19.14s-14.88,18.71-26.36,18.71-23.41-5.91-27.13-18.71c-.44-1.97-1.42-2.74-2.74-2.74-1.42,0-2.3,1.31-2.3,2.62,0,.55,0,.99.22,1.75M221.7,143.19c0,9.08-.77,14.44-4.59,19.14-2.95,3.5-8.2,6.56-14.99,6.56h-16.08c-1.31,0-1.86-.55-1.86-1.86v-47.8c0-1.31.55-1.86,1.86-1.86h16.08c6.78,0,12.03,3.06,14.99,6.56,3.83,4.7,4.59,10.28,4.59,19.25M234.17,143.3c0,13.35-.88,17.5-3.72,22.64-4.37,7.99-13.67,15.42-28.33,15.42h-14.66c-1.97,0-3.28-.55-3.28-2.41s1.31-2.52,3.28-2.52h14.66c12.47,0,20.46-6.56,23.96-12.91,2.3-4.38,3.28-7.99,3.28-20.24s-.98-16.3-3.28-20.68c-3.5-6.34-11.49-12.91-23.96-12.91h-14.66c-1.97,0-3.28-.66-3.28-2.52s1.31-2.41,3.28-2.41h14.66c14.66,0,23.96,7.44,28.33,15.42,2.84,5.14,3.72,9.41,3.72,23.08M216.66,143.3c0-9.19-.66-12.69-3.61-16.3-2.19-2.52-5.69-4.59-10.94-4.59h-13.02v41.57h13.02c5.25,0,8.75-2.19,10.94-4.7,2.95-3.61,3.61-7,3.61-15.97M176.52,108.07c0-1.97-.55-3.28-2.41-3.28s-2.52,1.31-2.52,3.28v70.01c0,1.97.55,3.28,2.41,3.28s2.52-1.31,2.52-3.28v-70.01ZM127.36,169.99c6.78,0,11.81-3.39,14.77-7.11,3.72-4.59,4.7-9.74,4.7-17.39,0-13.89-.77-17.61-4.6-22.32-2.19-2.73-5.25-4.92-8.2-5.91-.33-.11-.98-.22-1.2-.22-1.2,0-2.19.88-2.19,2.41,0,1.64,1.64,2.52,3.39,3.39,1.75.98,2.84,1.75,4.27,3.39,2.85,3.5,3.61,7.44,3.61,19.25,0,6.34-.66,10.83-3.61,14.33-2.19,2.73-5.91,5.36-10.94,5.36s-8.75-2.62-10.94-5.36c-2.95-3.5-3.61-7.99-3.61-14.33,0-11.82.77-15.75,3.61-19.25,1.42-1.64,2.52-2.41,4.27-3.39,1.75-.88,3.39-1.75,3.39-3.39,0-1.53-.99-2.41-2.3-2.41-.22,0-.77.11-1.09.22-2.95.98-6.02,3.17-8.21,5.91-3.83,4.7-4.59,8.42-4.59,22.32,0,7.66.98,12.8,4.7,17.39,2.95,3.72,7.99,7.11,14.77,7.11M127.36,177.54c-12.03,0-20.57-7.22-24.07-13.78-2.3-4.38-3.06-8.31-3.06-18.27,0-15.53,1.09-19.04,3.5-23.41,2.95-5.47,9.74-11.05,16.96-12.8,1.86-.44,3.28-.88,3.28-2.62,0-1.53-1.2-2.3-2.73-2.3-8.97,1.09-17.61,8.42-21.77,15.42-3.17,5.36-4.16,9.19-4.16,25.71,0,10.5,1.09,15.97,3.94,20.89,4.37,7.66,14.44,16.08,28.11,16.08s23.74-8.42,28.11-16.08c2.84-4.92,3.94-10.39,3.94-20.89,0-16.52-.98-20.35-4.16-25.71-4.16-7-12.8-14.33-21.77-15.42-1.53,0-2.73.77-2.73,2.3,0,1.75,1.42,2.19,3.28,2.62,7.22,1.75,14,7.33,16.96,12.8,2.41,4.38,3.5,7.88,3.5,23.41,0,9.95-.77,13.89-3.06,18.27-3.5,6.56-12.03,13.78-24.07,13.78M77.1,127.11c.55,1.64,1.53,2.52,2.73,2.52,1.31,0,2.3-1.09,2.3-2.3,0-.55-.11-1.2-.33-1.86-4.05-12.47-14.88-21.88-29.75-21.88-13.89,0-23.74,8.42-28.12,16.19-2.95,5.36-3.94,9.19-3.94,25.71,0,10.5,1.2,15.86,4.05,20.78,4.38,7.66,14.33,16.19,28.01,16.19,17.83,0,31.83-14,31.83-31.72v-10.5c0-1.2-.55-1.86-1.86-1.86h-27.46c-1.97,0-3.28.66-3.28,2.41s1.31,2.52,3.28,2.52h24.5v7.44c0,14.88-12.03,26.91-27.02,26.91-12.03,0-20.57-7.33-24.07-13.89-2.3-4.38-3.06-8.31-3.06-18.27,0-15.53,1.09-19.04,3.5-23.41,3.5-6.45,12.03-13.57,23.63-13.57,12.36,0,21.33,7.88,25.05,18.6M69.66,128.42c-2.95-7-9.08-12.25-17.61-12.25-6.78,0-11.82,3.39-14.77,7-3.83,4.59-4.59,8.64-4.59,22.32,0,7.77.88,12.69,4.7,17.5,2.95,3.72,7.77,7,14.66,7,10.83,0,19.14-7.66,19.14-17.61,0-1.09-.77-1.86-1.86-1.86h-14.77c-1.97,0-3.28.66-3.28,2.41s1.31,2.52,3.28,2.52h11.16c-1.42,4.59-6.02,9.74-13.67,9.74-4.92,0-8.64-2.62-10.94-5.36-2.84-3.39-3.61-7.99-3.61-14.33,0-12.03.77-15.64,3.72-19.14,2.19-2.73,5.91-5.25,10.83-5.25,5.91,0,10.61,3.94,12.8,8.97.77,1.64,1.75,2.52,2.84,2.52,1.31,0,2.3-1.2,2.3-2.41,0-.55-.11-1.09-.33-1.75"/>
  </g>
</svg>